<svg xmlns="http://www.w3.org/2000/svg" viewBox="0 0 720 520" role="img" aria-labelledby="title desc">
  <title id="title">Confine geografico del comune di Passignano sul Trasimeno</title>
  <desc id="desc">Territorio amministrativo completo del Comune di Passignano sul Trasimeno, ricavato dai confini amministrativi ISTAT non generalizzati al 1 gennaio 2026.</desc>
  <path d="M238.60 211.82L238.42 213.04L238.94 213.01L240.00 214.04L240.62 215.30L240.44 216.71L239.86 217.68L239.99 218.53L240.57 218.92L239.98 220.23L241.01 222.01L241.08 222.49L240.73 222.83L241.35 224.67L241.32 227.69L240.64 228.74L240.39 229.90L238.63 230.46L237.74 231.47L236.22 232.22L235.98 232.73L235.16 232.97L234.30 234.12L232.61 235.30L232.35 235.59L232.26 236.72L231.72 237.53L230.36 238.58L230.23 239.02L230.00 238.04L228.41 239.49L226.28 233.59L225.54 232.77L223.61 233.51L222.85 236.71L221.62 237.27L219.47 236.95L218.56 237.58L182.12 248.41L189.73 226.06L191.97 220.71L192.65 217.06L192.51 216.03L190.98 212.80L191.48 212.50L192.81 209.90L193.82 209.72L194.31 208.58L195.90 207.42L196.84 207.24L197.51 207.57L197.99 207.38L199.62 208.27L199.98 209.88L199.67 210.17L200.02 210.92L201.18 211.38L201.87 212.18L201.69 213.89L201.89 214.33L203.00 215.16L203.23 216.13L206.36 214.54L206.88 215.35L207.41 215.59L208.10 215.41L210.98 215.69L213.05 214.99L213.76 215.17L215.07 214.49L216.25 214.57L218.25 213.98L219.63 212.90L219.29 211.97L219.62 211.03L219.26 210.33L219.93 209.64L220.30 208.60L221.47 208.18L221.91 208.65L223.61 209.34L224.59 209.36L225.51 209.86L225.91 209.31L226.65 209.15L228.94 210.79L229.57 211.52L231.31 212.06L232.67 211.69L232.21 210.40L233.28 209.45L233.32 208.92L235.49 207.95L237.94 206.23L238.56 207.08L238.54 208.28L239.05 209.71L238.60 211.82Z" fill-rule="evenodd" clip-rule="evenodd" fill="#a5cb28" fill-opacity=".82" stroke="#d7f36f" stroke-width="2.5" stroke-linejoin="round" vector-effect="non-scaling-stroke"/>
</svg>
